<?xml version="1.0" encoding="UTF-8" standalone="no"?>
<!-- Created with Inkscape (http://www.inkscape.org/) -->

<svg
   xmlns:dc="http://purl.org/dc/elements/1.1/"
   xmlns:cc="http://creativecommons.org/ns#"
   xmlns:rdf="http://www.w3.org/1999/02/22-rdf-syntax-ns#"
   xmlns:svg="http://www.w3.org/2000/svg"
   xmlns="http://www.w3.org/2000/svg"
   xmlns:sodipodi="http://sodipodi.sourceforge.net/DTD/sodipodi-0.dtd"
   xmlns:inkscape="http://www.inkscape.org/namespaces/inkscape"
   width="70"
   height="25"
   id="svg2"
   version="1.1"
   inkscape:version="0.48.4 r9939"
   sodipodi:docname="hr.svg"
   inkscape:export-filename="C:\Users\Heracles\Desktop\hercules_knot.png"
   inkscape:export-xdpi="900"
   inkscape:export-ydpi="900">
  <defs
     id="defs4" />
  <sodipodi:namedview
     id="base"
     pagecolor="#ffffff"
     bordercolor="#666666"
     borderopacity="1.0"
     inkscape:pageopacity="0.0"
     inkscape:pageshadow="2"
     inkscape:zoom="1"
     inkscape:cx="35"
     inkscape:cy="48.692399"
     inkscape:document-units="px"
     inkscape:current-layer="layer1"
     showgrid="false"
     inkscape:window-width="1680"
     inkscape:window-height="997"
     inkscape:window-x="-8"
     inkscape:window-y="-8"
     inkscape:window-maximized="1"
     inkscape:snap-bbox="true"
     inkscape:bbox-nodes="true"
     inkscape:snap-smooth-nodes="false"
     inkscape:object-paths="false"
     showguides="false"
     fit-margin-top="2"
     fit-margin-left="2"
     fit-margin-right="2"
     fit-margin-bottom="2">
    <inkscape:grid
       type="xygrid"
       id="grid2985"
       empspacing="5"
       visible="true"
       enabled="true"
       snapvisiblegridlinesonly="true"
       originx="-43.693492px"
       originy="-42.992642px" />
  </sodipodi:namedview>
  <metadata
     id="metadata7">
    <rdf:RDF>
      <cc:Work
         rdf:about="">
        <dc:format>image/svg+xml</dc:format>
        <dc:type
           rdf:resource="http://purl.org/dc/dcmitype/StillImage" />
        <dc:title />
      </cc:Work>
    </rdf:RDF>
  </metadata>
  <g
     inkscape:label="Layer 1"
     inkscape:groupmode="layer"
     id="layer1"
     transform="translate(-14.579086,-1014.3688)">
    <path
       style="font-size:medium;font-style:normal;font-variant:normal;font-weight:normal;font-stretch:normal;text-indent:0;text-align:start;text-decoration:none;line-height:normal;letter-spacing:normal;word-spacing:normal;text-transform:none;direction:ltr;block-progression:tb;writing-mode:lr-tb;text-anchor:start;baseline-shift:baseline;color:#000000;fill:#000000;fill-opacity:1;stroke:none;stroke-width:2;marker:none;visibility:visible;display:inline;overflow:visible;enable-background:accumulate;font-family:Sans;-inkscape-font-specification:Sans"
       d="m 36.749192,1028.5218 c -1.166053,0.01 -3.383016,0.4933 -5.889247,1.0833 0.262634,1.0179 0.665265,1.8463 1.05562,2.278 1.550187,-0.32 3.120157,-0.5796 4.778068,-0.6945 0.01852,-6e-4 0.03704,-6e-4 0.05556,0 z m -11.972951,2.4723 c -2.223514,0.4657 -4.524041,0.8715 -6.77819,1.0556 l -0.05556,0 -0.02778,0 c -0.635035,-0.01 -1.381533,0.7817 -1.333414,1.4168 0.04812,0.6352 0.899015,1.268 1.527871,1.1668 l 0.02778,0 0.02778,0 c 2.699584,-0.2205 5.118745,-0.7071 7.417119,-1.2502 -0.35107,-0.7637 -0.621322,-1.5682 -0.805605,-2.389 z"
       id="path16-8-1"
       inkscape:connector-curvature="0"
       sodipodi:nodetypes="ccccccccccsccccc" />
    <path
       style="font-size:medium;font-style:normal;font-variant:normal;font-weight:normal;font-stretch:normal;text-indent:0;text-align:start;text-decoration:none;line-height:normal;letter-spacing:normal;word-spacing:normal;text-transform:none;direction:ltr;block-progression:tb;writing-mode:lr-tb;text-anchor:start;baseline-shift:baseline;color:#000000;fill:#000000;fill-opacity:1;stroke:none;stroke-width:2;marker:none;visibility:visible;display:inline;overflow:visible;enable-background:accumulate;font-family:Sans;-inkscape-font-specification:Sans"
       d="m 47.34375,0.03125 c -1.454055,0.085 -2.949171,0.3903 -4.375,0.8125 C 39.129714,1.98055 36.724921,3.3089 32.1875,4.75 l -0.03125,0 c -4.149987,1.2081 -9.32751,1.16285 -12.1875,1.03125 l 0,2.6875 a 0.88903191,0.88903191 0 0 1 0.09375,0 c 3.523423,0.293 8.689913,-0.083 12.875,-1.1875 l 0.03125,0 0,-0.03125 C 36.739856,6.4453 40.197154,4.3645 43.75,3.3125 c 1.743389,-0.5161 3.296117,-0.7998 4.71875,-0.75 1.13157,0.040147 2.194533,0.330757 3.125,0.90625 C 52.624946,3.1843528 53.576851,2.8658743 54.53125,2.5 54.357872,2.3116792 54.161885,2.1326205 53.96875,1.96875 c -1.555234,-1.3191 -3.288637,-1.8368 -5.1875,-1.9375 -0.481318,-0.025 -0.961444,-0.028 -1.4375,0 z M 56.9375,7.4375 c -0.08241,0.034347 -0.167239,0.059362 -0.25,0.09375 -0.735512,0.3056177 -1.471061,0.6198968 -2.25,0.90625 0.09573,0.5062244 0.176417,1.0284459 0.1875,1.5625 0.0092,0.441184 -0.01324,0.886088 -0.0625,1.3125 0.570095,0.203385 1.125939,0.380018 1.6875,0.59375 0.267739,0.10192 0.545404,0.210754 0.8125,0.3125 0.106645,-0.738897 0.172025,-1.489887 0.15625,-2.25 C 57.20107,9.1169058 57.102827,8.2673328 56.9375,7.4375 z m -34.40625,3.59375 c -0.424575,-0.0037 -0.836035,0.01429 -1.21875,0.03125 -0.437389,0.02 -0.846814,0.04665 -1.21875,0.09375 a 0.88903191,0.88903191 0 0 1 -0.125,0 l 0,2.65625 c 2.992073,-0.4384 8.54801,0.1219 12.1875,1.125 4.598169,1.3299 7.064096,2.9134 10.9375,4.125 1.937244,0.6061 3.863774,1.0024 5.78125,0.9375 1.892031,-0.064 3.818319,-0.67715 5.375,-2.03125 0.239548,-0.208309 0.449109,-0.450503 0.65625,-0.6875 -0.945098,-0.352408 -1.874832,-0.673757 -2.8125,-0.96875 -0.962497,0.688613 -2.038731,1.020753 -3.28125,1.0625 -1.460794,0.049 -3.149828,-0.2532 -4.9375,-0.8125 -3.579698,-1.1194 -6.632085,-2.9495 -10.9375,-4.125 l 0,0.03125 c -3.549289,-0.888388 -7.434227,-1.411761 -10.40625,-1.4375 z"
       transform="translate(16.579086,1017.3619)"
       id="path4370-7-4-48"
       inkscape:connector-curvature="0" />
    <path
       inkscape:connector-curvature="0"
       style="font-size:medium;font-style:normal;font-variant:normal;font-weight:normal;font-stretch:normal;text-indent:0;text-align:start;text-decoration:none;line-height:normal;letter-spacing:normal;word-spacing:normal;text-transform:none;direction:ltr;block-progression:tb;writing-mode:lr-tb;text-anchor:start;baseline-shift:baseline;color:#000000;fill:#000000;fill-opacity:1;stroke:none;stroke-width:3;marker:none;visibility:visible;display:inline;overflow:visible;enable-background:accumulate;font-family:Sans;-inkscape-font-specification:Sans"
       d="m 63.250806,1028.5218 0,2.6391 a 0.889377,0.889377 0 0 1 0.02778,0 c 3.443674,0.099 6.377127,1.1904 9.278342,2.2779 2.901215,1.0873 5.786642,2.1871 9.278343,2.4723 l 0.02778,0 0.02778,0 c 0.628855,0.1014 1.479752,-0.5593 1.527871,-1.1945 0.04812,-0.6353 -0.69838,-1.3978 -1.333415,-1.3889 l -0.02778,0 -0.05556,0 c -3.777489,-0.3088 -6.794697,-1.5351 -9.695035,-2.6391 -2.900337,-1.1039 -5.651685,-2.093 -9.056107,-2.1668 z"
       id="path21" />
    <path
       inkscape:connector-curvature="0"
       style="font-size:medium;font-style:normal;font-variant:normal;font-weight:normal;font-stretch:normal;text-indent:0;text-align:start;text-decoration:none;line-height:normal;letter-spacing:normal;word-spacing:normal;text-transform:none;direction:ltr;block-progression:tb;writing-mode:lr-tb;text-anchor:start;baseline-shift:baseline;color:#000000;fill:#000000;fill-opacity:1;stroke:#ffffff;stroke-width:0;stroke-miterlimit:4;stroke-dasharray:none;marker:none;visibility:visible;display:inline;overflow:visible;enable-background:accumulate;font-family:Sans;-inkscape-font-specification:Sans"
       d="m 82.029727,1018.2711 c -3.487879,0.1847 -6.087194,1.2581 -8.88943,2.389 -2.802235,1.131 -5.779525,2.3039 -9.833932,2.4724 a 0.88991908,0.88991908 0 0 1 -0.05556,0 l 0,2.6946 c 3.868019,-0.048 6.633642,-1.1376 9.44502,-2.3057 2.811377,-1.1682 5.663059,-2.4386 9.445019,-2.639 0.612681,-0.027 1.305493,-0.7487 1.277856,-1.3613 -0.02764,-0.6127 -0.777073,-1.2793 -1.388974,-1.25 z"
       id="path23" />
    <path
       style="font-size:medium;font-style:normal;font-variant:normal;font-weight:normal;font-stretch:normal;text-indent:0;text-align:start;text-decoration:none;line-height:normal;letter-spacing:normal;word-spacing:normal;text-transform:none;direction:ltr;block-progression:tb;writing-mode:lr-tb;text-anchor:start;baseline-shift:baseline;color:#000000;fill:#000000;fill-opacity:1;stroke:none;stroke-width:2;marker:none;visibility:visible;display:inline;overflow:visible;enable-background:accumulate;font-family:Sans;-inkscape-font-specification:Sans"
       d="m 34.637953,1017.3822 c -1.898863,0.1007 -3.639528,0.6254 -5.194761,1.9445 -2.22564,1.8878 -3.187092,4.9602 -3.250198,8.0005 -0.0632,3.0448 0.750876,6.0681 2.972403,8.0005 1.556682,1.354 3.497187,1.964 5.389217,2.028 1.917477,0.065 3.840886,-0.3385 5.77813,-0.9445 2.349731,-0.735 4.669686,-1.7463 6.861529,-2.6391 -1.523651,-0.3396 -3.339082,-0.6155 -5.083643,-0.7779 -0.008,0 -0.01981,0 -0.02778,0 -0.850605,0.3282 -1.698887,0.6575 -2.527932,0.9168 -1.787673,0.5592 -3.483951,0.8823 -4.944746,0.8334 -1.428634,-0.048 -2.658931,-0.4637 -3.722449,-1.389 -1.396498,-1.2146 -2.13509,-3.5124 -2.08346,-6.0004 0.05169,-2.4909 0.912208,-4.8228 2.333476,-6.0281 1.082038,-0.9178 2.383155,-1.3392 3.805787,-1.389 1.422633,-0.05 2.979121,0.234 4.72251,0.7501 0.664297,0.1967 1.346893,0.4198 2.027901,0.6667 1.831336,-0.088 3.751205,-0.2962 5.500335,-0.6946 -2.159495,-0.8406 -4.446239,-1.7622 -6.750411,-2.4445 -1.425829,-0.4222 -2.907321,-0.7481 -4.361377,-0.8334 -0.476055,-0.028 -0.963214,-0.025 -1.444532,0 z m 24.279256,5.7225 c -1.645883,0.6452 -3.365845,1.4418 -5.22254,2.1391 3.71379,0.4979 8.303918,0.6297 9.722814,0.5833 0.0093,-10e-5 0.01852,-10e-5 0.02778,0 l 0,-2.6945 c -0.913457,0.062 -2.578829,0.067 -4.528053,-0.028 z m 2.527932,5.4171 c -0.928638,0.023 -2.089467,0.068 -3.333537,0.1667 -1.501811,0.1181 -3.127879,0.3039 -4.69473,0.5555 1.821743,0.6824 3.436966,1.4217 5.000304,2.0557 2.207944,-0.1434 4.169308,-0.1736 5.028084,-0.1389 l 0,-2.6113 c -0.02822,-0.01 -0.05604,-0.017 -0.08334,-0.028 -0.291699,-0.025 -0.988146,-0.023 -1.916783,0 z"
       id="path25"
       inkscape:connector-curvature="0"
       sodipodi:nodetypes="csssccccccccscsccccccccccccsccccccs" />
    <path
       style="font-size:medium;font-style:normal;font-variant:normal;font-weight:normal;font-stretch:normal;text-indent:0;text-align:start;text-decoration:none;line-height:normal;letter-spacing:normal;word-spacing:normal;text-transform:none;direction:ltr;block-progression:tb;writing-mode:lr-tb;text-anchor:start;baseline-shift:baseline;color:#000000;fill:#000000;fill-opacity:1;stroke:none;stroke-width:2;marker:none;visibility:visible;display:inline;overflow:visible;enable-background:accumulate;font-family:Sans;-inkscape-font-specification:Sans"
       d="m 17.970271,1018.2711 c -0.6119,-0.029 -1.361336,0.6374 -1.388973,1.2501 -0.02764,0.6126 0.665174,1.3345 1.277855,1.3612 2.711703,0.1437 5.124751,0.8338 7.389339,1.639 0.292315,-0.8175 0.696945,-1.6005 1.166738,-2.3335 -2.689237,-0.938 -5.505485,-1.761 -8.444959,-1.9168 z m 14.723119,4.1392 c -0.1366,0.09 -0.286065,0.167 -0.416692,0.2778 -0.388604,0.3295 -0.830888,1.0813 -1.166738,2.0001 1.859308,0.6285 3.70411,1.1006 5.639232,1.1389 l 0,-2.6945 c -0.0093,10e-5 -0.01852,10e-5 -0.02778,0 -1.304904,-0.044 -2.651985,-0.3128 -4.028023,-0.7223 z"
       id="path14-8-7"
       inkscape:connector-curvature="0"
       sodipodi:nodetypes="ccccccccccccc" />
  </g>
</svg>
