<?xml version="1.0" encoding="UTF-8" standalone="no"?>
<svg
   xmlns:dc="http://purl.org/dc/elements/1.1/"
   xmlns:cc="http://creativecommons.org/ns#"
   xmlns:rdf="http://www.w3.org/1999/02/22-rdf-syntax-ns#"
   xmlns:svg="http://www.w3.org/2000/svg"
   xmlns="http://www.w3.org/2000/svg"
   width="500"
   height="500"
   viewBox="0 0 500 500"
   preserveAspectRatio="none"
   version="1.1">
  <defs />
  <mask id="mask" maskUnits="objectBoundingBox" maskContentUnits="objectBoundingBox">
  <path
         fill="#fff"
         d="M 0,0 0.02,0.02 0.04,0 0.06,0.02 0.08,0 0.1,0.02 0.12,0 0.14,0.02 0.16,0 0.18,0.02 0.2,0 l 0.02,0.02 0.02,-0.02 0.02,0.02 0.02,-0.02 0.02,0.02 0.02,-0.02 0.02,0.02 0.02,-0.02 0.02,0.02 0.02,-0.02 0.02,0.02 0.02,-0.02 0.02,0.02 0.02,-0.02 0.02,0.02 0.02,-0.02 0.02,0.02 0.02,-0.02 0.02,0.02 0.02,-0.02 0.02,0.02 0.02,-0.02 0.02,0.02 0.02,-0.02 0.02,0.02 0.02,-0.02 0.02,0.02 0.02,-0.02 0.02,0.02 0.02,-0.02 0.02,0.02 0.02,-0.02 0.02,0.02 0.02,-0.02 0.02,0.02 0.02,-0.02 0.02,0.02 0.02,-0.02 0.02,0.02 0.02,-0.02 0,0.98 -0.02,0.02 -0.02,-0.02 -0.02,0.02 -0.02,-0.02 -0.02,0.02 -0.02,-0.02 -0.02,0.02 -0.02,-0.02 -0.02,0.02 -0.02,-0.02 -0.02,0.02 -0.02,-0.02 -0.02,0.02 -0.02,-0.02 -0.02,0.02 -0.02,-0.02 -0.02,0.02 -0.02,-0.02 -0.02,0.02 -0.02,-0.02 -0.02,0.02 -0.02,-0.02 -0.02,0.02 -0.02,-0.02 -0.02,0.02 -0.02,-0.02 -0.02,0.02 -0.02,-0.02 -0.02,0.02 -0.02,-0.02 -0.02,0.02 -0.02,-0.02 -0.02,0.02 -0.02,-0.02 -0.02,0.02 -0.02,-0.02 -0.02,0.02 -0.02,-0.02 -0.02,0.02 L 0.2,0.98 0.18,1 0.16,0.98 0.14,1 0.12,0.98 0.1,1 0.08,0.98 0.06,1 0.04,0.98 0.02,1 0,0.98 z" />
  </mask>
  <g>
    <path
       fill="#000"
       d="M 0,0 10,10 20,0 30,10 40,0 50,10 60,0 70,10 80,0 90,10 100,0 l 10,10 10,-10 10,10 10,-10 10,10 10,-10 10,10 10,-10 10,10 10,-10 10,10 10,-10 10,10 10,-10 10,10 10,-10 10,10 10,-10 10,10 10,-10 10,10 10,-10 10,10 10,-10 10,10 10,-10 10,10 10,-10 10,10 10,-10 10,10 10,-10 10,10 10,-10 10,10 10,-10 10,10 10,-10 10,10 10,-10 0,490 -10,10 -10,-10 -10,10 -10,-10 -10,10 -10,-10 -10,10 -10,-10 -10,10 -10,-10 -10,10 -10,-10 -10,10 -10,-10 -10,10 -10,-10 -10,10 -10,-10 -10,10 -10,-10 -10,10 -10,-10 -10,10 -10,-10 -10,10 -10,-10 -10,10 -10,-10 -10,10 -10,-10 -10,10 -10,-10 -10,10 -10,-10 -10,10 -10,-10 -10,10 -10,-10 -10,10 L 100,490 90,500 80,490 70,500 60,490 50,500 40,490 30,500 20,490 10,500 0,490 z" />
  </g>
</svg>